<svg width="15" height="15" viewBox="0 0 15 15" fill="none" xmlns="http://www.w3.org/2000/svg">
<rect width="14.3553" height="14.8856" fill="white"/>
<path d="M7.17791 0.930298C3.70964 0.930298 0.897461 3.84636 0.897461 7.44274C0.897461 11.0391 3.70964 13.9552 7.17791 13.9552C10.6462 13.9552 13.4583 11.0391 13.4583 7.44274C13.4583 3.84636 10.6462 0.930298 7.17791 0.930298ZM7.17791 12.8504C4.29843 12.8504 1.96289 10.4286 1.96289 7.44274C1.96289 4.4569 4.29843 2.03509 7.17791 2.03509C10.0574 2.03509 12.3929 4.4569 12.3929 7.44274C12.3929 10.4286 10.0574 12.8504 7.17791 12.8504Z" fill="#999999"/>
<path d="M6.50488 4.88429C6.50488 5.06934 6.57578 5.24682 6.70197 5.37768C6.82817 5.50853 6.99932 5.58205 7.17779 5.58205C7.35625 5.58205 7.52741 5.50853 7.6536 5.37768C7.7798 5.24682 7.85069 5.06934 7.85069 4.88429C7.85069 4.69923 7.7798 4.52175 7.6536 4.39089C7.52741 4.26004 7.35625 4.18652 7.17779 4.18652C6.99932 4.18652 6.82817 4.26004 6.70197 4.39089C6.57578 4.52175 6.50488 4.69923 6.50488 4.88429ZM7.51424 6.5124H6.84134C6.77965 6.5124 6.72918 6.56473 6.72918 6.62869V10.5827C6.72918 10.6466 6.77965 10.699 6.84134 10.699H7.51424C7.57592 10.699 7.62639 10.6466 7.62639 10.5827V6.62869C7.62639 6.56473 7.57592 6.5124 7.51424 6.5124Z" fill="#999999"/>
</svg>
