<svg width="33" height="34" viewBox="0 0 33 34" fill="none" xmlns="http://www.w3.org/2000/svg">
<path d="M14.7274 5.54884C14.7274 7.34973 13.2746 8.79983 11.4946 8.79983C9.71452 8.79983 8.26172 7.34973 8.26172 5.54884C8.26172 3.74795 9.71452 2.29785 11.4946 2.29785C13.2746 2.29785 14.7274 3.74795 14.7274 5.54884Z" stroke="#174449" stroke-width="3"/>
<path d="M0 5.54883H7.77539" stroke="#174449" stroke-width="4"/>
<path d="M15.2109 5.54883L32.452 5.54883" stroke="#174449" stroke-width="4"/>
<path d="M0 17.0869H17.9172" stroke="#174449" stroke-width="4"/>
<path d="M25.0156 17.0869H32.453" stroke="#174449" stroke-width="4"/>
<path d="M15.4012 28.625C15.4012 30.4259 13.9484 31.876 12.1684 31.876C10.3883 31.876 8.93555 30.4259 8.93555 28.625C8.93555 26.8241 10.3883 25.374 12.1684 25.374C13.9484 25.374 15.4012 26.8241 15.4012 28.625Z" stroke="#174449" stroke-width="3"/>
<path d="M0 28.625H8.11345" stroke="#174449" stroke-width="4"/>
<path d="M16.2266 28.625H32.4535" stroke="#174449" stroke-width="4"/>
<path d="M24.868 17.0869C24.868 18.8878 23.4152 20.3379 21.6352 20.3379C19.8551 20.3379 18.4023 18.8878 18.4023 17.0869C18.4023 15.286 19.8551 13.8359 21.6352 13.8359C23.4152 13.8359 24.868 15.286 24.868 17.0869Z" stroke="#174449" stroke-width="3"/>
</svg>
